<?xml version="1.0" encoding="UTF-8" standalone="no"?>
<!-- Created with Inkscape (http://www.inkscape.org/) -->

<svg
   xmlns:dc="http://purl.org/dc/elements/1.1/"
   xmlns:cc="http://creativecommons.org/ns#"
   xmlns:rdf="http://www.w3.org/1999/02/22-rdf-syntax-ns#"
   xmlns:svg="http://www.w3.org/2000/svg"
   xmlns="http://www.w3.org/2000/svg"
   xmlns:sodipodi="http://sodipodi.sourceforge.net/DTD/sodipodi-0.dtd"
   xmlns:inkscape="http://www.inkscape.org/namespaces/inkscape"
   width="256px"
   height="256px"
   viewBox="0 0 256 256"
   version="1.1"
   id="SVGRoot"
   inkscape:version="0.92.4 (33fec40, 2019-01-16)"
   sodipodi:docname="icon.svg">
  <defs
     id="defs4526" />
  <sodipodi:namedview
     id="base"
     pagecolor="#ffffff"
     bordercolor="#666666"
     borderopacity="1.0"
     inkscape:pageopacity="0.0"
     inkscape:pageshadow="2"
     inkscape:zoom="2.8284271"
     inkscape:cx="59.521711"
     inkscape:cy="115.98204"
     inkscape:document-units="px"
     inkscape:current-layer="layer1"
     showgrid="false"
     inkscape:window-width="1920"
     inkscape:window-height="1016"
     inkscape:window-x="1366"
     inkscape:window-y="27"
     inkscape:window-maximized="1"
     inkscape:grid-bbox="true" />
  <metadata
     id="metadata4529">
    <rdf:RDF>
      <cc:Work
         rdf:about="">
        <dc:format>image/svg+xml</dc:format>
        <dc:type
           rdf:resource="http://purl.org/dc/dcmitype/StillImage" />
        <dc:title />
      </cc:Work>
    </rdf:RDF>
  </metadata>
  <g
     inkscape:label="Capa 1"
     inkscape:groupmode="layer"
     id="layer1">
    <ellipse
       style="fill:#ffffff;fill-opacity:0.98502994;stroke:#940315;stroke-width:7.43409967;stroke-miterlimit:4;stroke-dasharray:none;stroke-dashoffset:0;stroke-opacity:1"
       id="path5085"
       cx="128.04054"
       cy="128.54196"
       rx="124.51994"
       ry="124.5388"
       inkscape:export-xdpi="191.61697"
       inkscape:export-ydpi="191.61697" />
    <path
       inkscape:connector-curvature="0"
       d="m 223.64049,191.51201 h -18.51956 l -7.03638,-12.10333 v -33.01935 c 0,-7.7867 -5.19421,-14.57059 -12.92385,-16.87866 l -29.53355,-8.82138 V 90.59882 c 0,-2.795749 -0.85869,-5.427966 -2.36401,-7.639103 8.38079,-2.781281 14.42014,-10.44209 14.42014,-19.438549 0,-10.718482 -8.57028,-19.544198 -19.46244,-20.474669 V 27.795787 c 0,-10.226481 -8.64548,-18.545714 -19.27299,-18.545714 -2.12641,0 -3.84977,1.658353 -3.84977,3.704513 v 29.568071 c -0.0181,0 -0.0346,-0.0026 -0.0527,-0.0026 -3.34903,-0.06506 -6.51606,1.140298 -8.92517,3.376031 -2.40913,2.23573 -3.77009,5.241299 -3.83025,8.461044 -0.12632,6.647855 5.39271,12.15398 12.30125,12.275531 l 0.22407,0.0039 c -0.6692,6.058909 -2.53394,12.046896 -5.50397,17.557364 -1.05869,1.965117 -1.61962,4.179147 -1.61962,6.404751 v 31.861672 l -9.27407,16.0799 -49.686261,30.05864 c -4.72651,2.85941 -7.549184,7.77369 -7.549184,13.14666 v 9.76631 H 34.243196 c -2.126403,0 -3.849782,1.65837 -3.849782,3.70452 0,2.04616 1.723379,3.70452 3.849782,3.70452 H 223.64199 c 2.1249,0 3.84979,-1.65836 3.84979,-3.70452 0,-2.04615 -1.72489,-3.70452 -3.85129,-3.70452 z M 159.98373,63.521168 c 0,6.630494 -5.12504,12.12937 -11.76289,13.023662 V 50.497493 c 6.63785,0.894292 11.76289,6.393166 11.76289,13.023675 z m -27.1861,-46.228254 c 4.49493,1.529563 7.72363,5.659505 7.72363,10.502873 v 53.058431 c 0,1.614938 1.08576,3.0432 2.68583,3.530866 2.82268,0.862451 4.72049,3.360107 4.72049,6.213736 V 119.7154 H 125.39284 V 90.59882 c 0,-1.057813 0.25412,-2.064974 0.75339,-2.994005 4.35206,-8.07322 6.6514,-17.052318 6.6514,-25.969191 z m -11.45761,40.50941 c -0.89478,-0.892848 -1.376,-2.069323 -1.35194,-3.310901 0.0226,-1.241592 0.54741,-2.400706 1.47676,-3.263157 0.90681,-0.840746 2.09483,-1.302374 3.35051,-1.302374 0.0543,0 0.10824,0.0013 0.16242,0.0013 0.0406,0 0.0796,-0.0039 0.12031,-0.0062 v 9.309039 l -0.36695,-0.0062 c -1.29027,-0.02312 -2.49482,-0.52819 -3.39111,-1.422483 z M 88.630404,175.40029 c -0.936884,-1.83633 -3.243744,-2.5946 -5.153598,-1.69163 l -17.056343,8.06165 c -0.254145,0.12008 -0.493253,0.26771 -0.714314,0.43847 l -6.824342,5.27749 v -5.74057 c 0,-2.80877 1.475246,-5.37876 3.94753,-6.87504 l 50.522383,-30.56511 c 0.54889,-0.33137 1.00306,-0.793 1.31735,-1.33709 l 9.13873,-15.84402 h 20.7768 l -11.12077,16.06252 c -4.64229,6.7043 -11.06813,12.12504 -18.58272,15.67616 l -7.97026,3.76819 c -1.90835,0.90153 -2.69484,3.12133 -1.75796,4.95766 0.93838,1.83635 3.24524,2.59462 5.15359,1.69163 l 7.96874,-3.76672 c 8.73421,-4.1285 16.20068,-10.42762 21.5964,-18.22012 l 3.02268,-4.36582 31.48099,11.15838 v 34.24502 c 0,1.10847 0.17745,2.17641 0.5068,3.18067 H 65.96631 l 4.231753,-3.27328 16.674371,-7.88076 c 1.90835,-0.90154 2.694849,-3.12135 1.75797,-4.95768 z m 96.749836,16.11172 c -1.82261,0 -3.30538,-1.42681 -3.30538,-3.18067 V 151.5033 c 0,-1.55127 -1.00605,-2.94046 -2.5189,-3.47587 l -32.27052,-11.43912 4.18816,-6.05022 1.91136,-2.75958 29.49445,8.80688 c 4.48892,1.34145 7.50557,5.28039 7.50557,9.80394 v 33.98601 c 0,0.63382 0.16843,1.25605 0.48874,1.80884 l 5.42429,9.32783 z m 0,0"
       id="path4"
       style="stroke-width:0.37764487" />
  </g>
</svg>
